<svg width="128" height="128" version="1.1" xmlns="http://www.w3.org/2000/svg" desc="" ><path fill="rgb(27,27,27)" stroke="rgb(27,27,27)" stroke-width="1" opacity="0.996078431372549" d="M 47.5 43 L 48.5 44 L 55 44 L 56.5 48 L 63 51 L 64 56.5 L 63 61.5 L 60.5 64 Q 53.6 65.6 51 71.5 Q 49.3 76.3 53.5 75 L 56.5 76 L 61.5 75 L 67.5 71 L 70.5 71 L 69.5 73 L 61.5 78 L 51.5 78 L 47 76 L 47 71.5 L 55.5 62 Q 59.5 62.5 60 59.5 L 61 55.5 L 60 53 Q 56.8 50 48.5 51 Q 47.5 54 42.5 53 Q 39.5 51.5 42.5 50 L 45.5 50 L 53 46.5 L 45 44.5 L 47.5 43 Z " /><path fill="rgb(27,27,27)" stroke="rgb(27,27,27)" stroke-width="1" opacity="0.996078431372549" d="M 67 51 L 77.5 52 L 80 54.5 L 83 62.5 L 80 70.5 L 80 80.5 L 81 81.5 L 81 88 L 78 86.5 L 77 69.5 L 80 61.5 L 76.5 56 L 70.5 55 L 67.5 56 Q 64.8 54.8 67 53.5 L 67 51 Z " /><path fill="rgb(27,27,27)" stroke="rgb(27,27,27)" stroke-width="1" opacity="0.996078431372549" d="M 49.5 62 L 51 62.5 L 49.5 63 L 49.5 62 Z " /></svg>